<?xml version="1.0" encoding="UTF-8" standalone="no"?>
<svg
   width="3122"
   height="1693"
   xml:space="preserve"
   overflow="hidden"
   version="1.1"
   id="svg107"
   sodipodi:docname="crowdsourcing.svg"
   inkscape:export-filename="crowdsourcing.pdf"
   inkscape:export-xdpi="96"
   inkscape:export-ydpi="96"
   inkscape:version="1.3.2 (091e20e, 2023-11-25, custom)"
   xmlns:inkscape="http://www.inkscape.org/namespaces/inkscape"
   xmlns:sodipodi="http://sodipodi.sourceforge.net/DTD/sodipodi-0.dtd"
   xmlns="http://www.w3.org/2000/svg"
   xmlns:svg="http://www.w3.org/2000/svg"><sodipodi:namedview
     id="namedview107"
     pagecolor="#ffffff"
     bordercolor="#000000"
     borderopacity="0.25"
     inkscape:showpageshadow="2"
     inkscape:pageopacity="0.0"
     inkscape:pagecheckerboard="0"
     inkscape:deskcolor="#d1d1d1"
     inkscape:zoom="0.53139013"
     inkscape:cx="1561"
     inkscape:cy="846.83544"
     inkscape:window-width="2560"
     inkscape:window-height="1330"
     inkscape:window-x="-12"
     inkscape:window-y="-12"
     inkscape:window-maximized="1"
     inkscape:current-layer="svg107" /><defs
     id="defs3"><clipPath
       id="clip0"><path
         d="M2324.95 363.606 2514.28 439.487 2438.4 628.819 2249.07 552.938Z"
         fill-rule="evenodd"
         clip-rule="evenodd"
         id="path1" /></clipPath><clipPath
       id="clip1"><path
         d="M2324.95 363.606 2514.28 439.487 2438.4 628.819 2249.07 552.938Z"
         fill-rule="evenodd"
         clip-rule="evenodd"
         id="path2" /></clipPath><clipPath
       id="clip2"><path
         d="M2324.95 363.606 2514.28 439.487 2438.4 628.819 2249.07 552.938Z"
         fill-rule="evenodd"
         clip-rule="evenodd"
         id="path3" /></clipPath></defs><g
     transform="translate(-617 -312)"
     id="g107"><g
       id="g6"><g
         id="g5"><g
           id="g4"><path
             d="M85.2501 103.333 38.75 103.333 38.75 20.6667 85.2501 20.6667 85.2501 103.333ZM56.8334 10.3333 67.1667 10.3333C68.5876 10.3333 69.7501 11.4958 69.7501 12.9167 69.7501 14.3375 68.5876 15.5 67.1667 15.5L56.8334 15.5C55.4125 15.5 54.25 14.3375 54.25 12.9167 54.25 11.4958 55.4125 10.3333 56.8334 10.3333ZM90.4167 5.16667 33.5834 5.16667C32.1625 5.16667 31 6.32917 31 7.75001L31 116.25C31 117.671 32.1625 118.833 33.5834 118.833L90.4167 118.833C91.8376 118.833 93.0001 117.671 93.0001 116.25L93.0001 7.75001C93.0001 6.32917 91.8376 5.16667 90.4167 5.16667Z"
             transform="matrix(1.00806 0 0 1 1705 1668)"
             id="path4" /></g></g></g><g
       id="g9"><g
         id="g8"><g
           id="g7"><path
             d="M85.2501 103.333 38.75 103.333 38.75 20.6667 85.2501 20.6667 85.2501 103.333ZM56.8334 10.3333 67.1667 10.3333C68.5876 10.3333 69.7501 11.4958 69.7501 12.9167 69.7501 14.3375 68.5876 15.5 67.1667 15.5L56.8334 15.5C55.4125 15.5 54.25 14.3375 54.25 12.9167 54.25 11.4958 55.4125 10.3333 56.8334 10.3333ZM90.4167 5.16667 33.5834 5.16667C32.1625 5.16667 31 6.32917 31 7.75001L31 116.25C31 117.671 32.1625 118.833 33.5834 118.833L90.4167 118.833C91.8376 118.833 93.0001 117.671 93.0001 116.25L93.0001 7.75001C93.0001 6.32917 91.8376 5.16667 90.4167 5.16667Z"
             transform="matrix(1.00806 0 0 1 1996 1668)"
             id="path6" /></g></g></g><g
       id="g12"><g
         id="g11"><g
           id="g10"><path
             d="M2188.5 1705.81C2188.5 1721 2176.19 1733.31 2161 1733.31 2145.81 1733.31 2133.5 1721 2133.5 1705.81 2133.5 1690.62 2145.81 1678.31 2161 1678.31 2176.19 1678.31 2188.5 1690.62 2188.5 1705.81Z"
             id="path9" /><path
             d="M2235.94 1847.44 2216.69 1765.62C2216 1762.87 2214.62 1760.12 2212.56 1758.06 2204.31 1751.19 2194.69 1746.37 2183.69 1742.94 2176.12 1741.56 2168.56 1740.19 2161 1740.19 2153.44 1740.19 2145.88 1741.56 2138.31 1743.62 2127.31 1746.37 2117.69 1751.87 2109.44 1758.75 2107.38 1760.81 2106 1763.56 2105.31 1766.31L2086.06 1848.12C2086.06 1848.81 2085.38 1850.19 2085.38 1851.56 2085.38 1859.12 2091.56 1865.31 2099.12 1865.31 2105.31 1865.31 2110.81 1860.5 2112.19 1855L2126.62 1795.19 2126.62 1987.69 2154.12 1987.69 2154.12 1863.94 2167.88 1863.94 2167.88 1987.69 2195.38 1987.69 2195.38 1794.5 2209.81 1854.31C2211.19 1859.81 2216.69 1864.62 2222.88 1864.62 2230.44 1864.62 2236.62 1858.44 2236.62 1850.87 2236.62 1849.5 2235.94 1848.12 2235.94 1847.44Z"
             id="path10" /></g></g></g><g
       id="g15"><g
         id="g14"><g
           id="g13"><path
             d="M85.2501 103.333 38.75 103.333 38.75 20.6667 85.2501 20.6667 85.2501 103.333ZM56.8334 10.3333 67.1667 10.3333C68.5876 10.3333 69.7501 11.4958 69.7501 12.9167 69.7501 14.3375 68.5876 15.5 67.1667 15.5L56.8334 15.5C55.4125 15.5 54.25 14.3375 54.25 12.9167 54.25 11.4958 55.4125 10.3333 56.8334 10.3333ZM90.4167 5.16667 33.5834 5.16667C32.1625 5.16667 31 6.32917 31 7.75001L31 116.25C31 117.671 32.1625 118.833 33.5834 118.833L90.4167 118.833C91.8376 118.833 93.0001 117.671 93.0001 116.25L93.0001 7.75001C93.0001 6.32917 91.8376 5.16667 90.4167 5.16667Z"
             transform="matrix(1.00806 0 0 1 2301 1668)"
             id="path12" /></g></g></g><g
       id="g18"><g
         id="g17"><g
           id="g16"><path
             d="M85.2501 103.333 38.75 103.333 38.75 20.6667 85.2501 20.6667 85.2501 103.333ZM56.8334 10.3333 67.1667 10.3333C68.5876 10.3333 69.7501 11.4958 69.7501 12.9167 69.7501 14.3375 68.5876 15.5 67.1667 15.5L56.8334 15.5C55.4125 15.5 54.25 14.3375 54.25 12.9167 54.25 11.4958 55.4125 10.3333 56.8334 10.3333ZM90.4167 5.16667 33.5834 5.16667C32.1625 5.16667 31 6.32917 31 7.75001L31 116.25C31 117.671 32.1625 118.833 33.5834 118.833L90.4167 118.833C91.8376 118.833 93.0001 117.671 93.0001 116.25L93.0001 7.75001C93.0001 6.32917 91.8376 5.16667 90.4167 5.16667Z"
             transform="matrix(1.00806 0 0 1 2618 1668)"
             id="path15" /></g></g></g><g
       id="g21"><g
         id="g20"><g
           id="g19"><path
             d="M2810.5 1705.81C2810.5 1721 2798.19 1733.31 2783 1733.31 2767.81 1733.31 2755.5 1721 2755.5 1705.81 2755.5 1690.62 2767.81 1678.31 2783 1678.31 2798.19 1678.31 2810.5 1690.62 2810.5 1705.81Z"
             id="path18" /><path
             d="M2857.94 1847.44 2838.69 1765.62C2838 1762.87 2836.62 1760.12 2834.56 1758.06 2826.31 1751.19 2816.69 1746.37 2805.69 1742.94 2798.12 1741.56 2790.56 1740.19 2783 1740.19 2775.44 1740.19 2767.88 1741.56 2760.31 1743.62 2749.31 1746.37 2739.69 1751.87 2731.44 1758.75 2729.38 1760.81 2728 1763.56 2727.31 1766.31L2708.06 1848.12C2708.06 1848.81 2707.38 1850.19 2707.38 1851.56 2707.38 1859.12 2713.56 1865.31 2721.12 1865.31 2727.31 1865.31 2732.81 1860.5 2734.19 1855L2748.62 1795.19 2748.62 1987.69 2776.12 1987.69 2776.12 1863.94 2789.88 1863.94 2789.88 1987.69 2817.38 1987.69 2817.38 1794.5 2831.81 1854.31C2833.19 1859.81 2838.69 1864.62 2844.88 1864.62 2852.44 1864.62 2858.62 1858.44 2858.62 1850.87 2858.62 1849.5 2857.94 1848.12 2857.94 1847.44Z"
             id="path19" /></g></g></g><g
       id="g24"><g
         id="g23"><g
           id="g22"><path
             d="M85.2501 103.333 38.75 103.333 38.75 20.6667 85.2501 20.6667 85.2501 103.333ZM56.8334 10.3333 67.1667 10.3333C68.5876 10.3333 69.7501 11.4958 69.7501 12.9167 69.7501 14.3375 68.5876 15.5 67.1667 15.5L56.8334 15.5C55.4125 15.5 54.25 14.3375 54.25 12.9167 54.25 11.4958 55.4125 10.3333 56.8334 10.3333ZM90.4167 5.16667 33.5834 5.16667C32.1625 5.16667 31 6.32917 31 7.75001L31 116.25C31 117.671 32.1625 118.833 33.5834 118.833L90.4167 118.833C91.8376 118.833 93.0001 117.671 93.0001 116.25L93.0001 7.75001C93.0001 6.32917 91.8376 5.16667 90.4167 5.16667Z"
             transform="matrix(1.00806 0 0 1 1415 1668)"
             id="path21" /></g></g></g><g
       id="g27"><g
         id="g26"><g
           id="g25"><path
             d="M1607.5 1705.81C1607.5 1721 1595.19 1733.31 1580 1733.31 1564.81 1733.31 1552.5 1721 1552.5 1705.81 1552.5 1690.62 1564.81 1678.31 1580 1678.31 1595.19 1678.31 1607.5 1690.62 1607.5 1705.81Z"
             id="path24" /><path
             d="M1654.94 1847.44 1635.69 1765.62C1635 1762.87 1633.62 1760.12 1631.56 1758.06 1623.31 1751.19 1613.69 1746.37 1602.69 1742.94 1595.12 1741.56 1587.56 1740.19 1580 1740.19 1572.44 1740.19 1564.87 1741.56 1557.31 1743.62 1546.31 1746.37 1536.69 1751.87 1528.44 1758.75 1526.37 1760.81 1525 1763.56 1524.31 1766.31L1505.06 1848.12C1505.06 1848.81 1504.37 1850.19 1504.37 1851.56 1504.37 1859.12 1510.56 1865.31 1518.12 1865.31 1524.31 1865.31 1529.81 1860.5 1531.19 1855L1545.62 1795.19 1545.62 1987.69 1573.12 1987.69 1573.12 1863.94 1586.87 1863.94 1586.87 1987.69 1614.37 1987.69 1614.37 1794.5 1628.81 1854.31C1630.19 1859.81 1635.69 1864.62 1641.87 1864.62 1649.44 1864.62 1655.62 1858.44 1655.62 1850.87 1655.62 1849.5 1654.94 1848.12 1654.94 1847.44Z"
             id="path25" /></g></g></g><g
       id="g31"><g
         id="g30"><g
           id="g29"><path
             d="M1870.1 1733.31C1885.28 1733.31 1897.6 1721 1897.6 1705.81 1897.6 1690.62 1885.28 1678.31 1870.1 1678.31 1854.91 1678.31 1842.6 1690.62 1842.6 1705.81 1842.61 1720.99 1854.92 1733.3 1870.1 1733.31ZM1870.1 1685.19C1881.49 1685.19 1890.72 1694.42 1890.72 1705.81 1890.72 1717.2 1881.49 1726.44 1870.1 1726.44 1858.71 1726.44 1849.47 1717.2 1849.47 1705.81 1849.48 1694.43 1858.71 1685.2 1870.1 1685.19Z"
             id="path27" /><path
             d="M1931.73 1843.24 1921.56 1771.02C1921.27 1768.56 1920.53 1766.17 1919.37 1763.97 1918.64 1762.64 1917.78 1761.4 1916.8 1760.24 1909.66 1752.63 1900.74 1746.91 1890.84 1743.6 1884.28 1741.33 1877.38 1740.18 1870.43 1740.19 1870.31 1740.19 1870.21 1740.25 1870.09 1740.26 1869.96 1740.27 1869.87 1740.19 1869.74 1740.19 1862.81 1740.15 1855.93 1741.3 1849.39 1743.58 1839.42 1746.93 1830.43 1752.7 1823.25 1760.39 1822.33 1761.5 1821.51 1762.7 1820.82 1763.96 1819.66 1766.16 1818.92 1768.56 1818.63 1771.02L1808.44 1843.4C1807.46 1853.92 1812.48 1858.36 1816.87 1860.24 1818.62 1860.98 1820.64 1860.17 1821.38 1858.43 1822.12 1856.68 1821.31 1854.66 1819.57 1853.92 1819.56 1853.92 1819.56 1853.92 1819.56 1853.92 1817.42 1853 1814.64 1850.99 1815.27 1844.22L1825.46 1771.98C1825.64 1770.34 1826.12 1768.75 1826.87 1767.27 1827.31 1766.45 1827.83 1765.67 1828.41 1764.94 1834.8 1758.14 1842.77 1753.03 1851.63 1750.08 1857.34 1748.08 1863.36 1747.06 1869.42 1747.06L1869.75 1747.06C1869.86 1747.04 1869.98 1747.02 1870.09 1746.99 1870.2 1747.02 1870.32 1747.04 1870.43 1747.06L1870.76 1747.06C1876.83 1747.06 1882.86 1748.09 1888.59 1750.11 1897.36 1753.03 1905.27 1758.08 1911.62 1764.8 1912.26 1765.57 1912.83 1766.4 1913.31 1767.27 1914.06 1768.75 1914.54 1770.34 1914.72 1771.98L1924.89 1844.04C1925.53 1850.97 1922.76 1852.98 1920.61 1853.9 1918.86 1854.64 1918.05 1856.66 1918.79 1858.41 1919.34 1859.68 1920.59 1860.51 1921.98 1860.5 1922.44 1860.5 1922.9 1860.41 1923.33 1860.22 1927.71 1858.36 1932.73 1853.92 1931.73 1843.24Z"
             id="path28" /><path
             d="M1897.57 1805.65C1897.57 1805.6 1897.6 1805.55 1897.6 1805.5L1897.6 1778C1897.6 1776.1 1896.06 1774.56 1894.16 1774.56 1892.26 1774.56 1890.72 1776.1 1890.72 1778L1890.72 1805.5C1890.72 1805.58 1890.77 1805.65 1890.77 1805.74 1890.7 1806.21 1890.73 1806.7 1890.85 1807.16L1913.68 1888 1826.51 1888 1849.34 1806.43 1849.47 1778C1849.47 1776.1 1847.93 1774.56 1846.03 1774.56 1844.14 1774.56 1842.6 1776.1 1842.6 1778L1842.6 1805.03 1817.44 1894.87 1839.16 1894.87 1839.16 1987.69 1901.03 1987.69 1901.03 1894.87 1922.77 1894.87ZM1846.03 1894.87 1866.66 1894.87 1866.66 1980.81 1846.03 1980.81ZM1894.16 1980.81 1873.53 1980.81 1873.53 1894.87 1894.16 1894.87Z"
             id="path29" /></g></g></g><g
       id="g35"><g
         id="g34"><g
           id="g33"><path
             d="M2490.1 1733.31C2505.28 1733.31 2517.6 1721 2517.6 1705.81 2517.6 1690.62 2505.28 1678.31 2490.1 1678.31 2474.91 1678.31 2462.6 1690.62 2462.6 1705.81 2462.61 1720.99 2474.92 1733.3 2490.1 1733.31ZM2490.1 1685.19C2501.49 1685.19 2510.72 1694.42 2510.72 1705.81 2510.72 1717.2 2501.49 1726.44 2490.1 1726.44 2478.71 1726.44 2469.47 1717.2 2469.47 1705.81 2469.48 1694.43 2478.71 1685.2 2490.1 1685.19Z"
             id="path31" /><path
             d="M2551.73 1843.24 2541.56 1771.02C2541.27 1768.56 2540.53 1766.17 2539.37 1763.97 2538.64 1762.64 2537.78 1761.4 2536.8 1760.24 2529.66 1752.63 2520.74 1746.91 2510.85 1743.6 2504.28 1741.33 2497.38 1740.18 2490.43 1740.19 2490.31 1740.19 2490.21 1740.25 2490.09 1740.26 2489.96 1740.27 2489.87 1740.19 2489.74 1740.19 2482.82 1740.15 2475.93 1741.3 2469.39 1743.58 2459.42 1746.93 2450.43 1752.7 2443.25 1760.39 2442.33 1761.5 2441.51 1762.7 2440.82 1763.96 2439.66 1766.16 2438.92 1768.56 2438.63 1771.02L2428.44 1843.4C2427.46 1853.92 2432.48 1858.36 2436.87 1860.24 2438.62 1860.98 2440.64 1860.17 2441.38 1858.43 2442.12 1856.68 2441.31 1854.66 2439.57 1853.92 2439.57 1853.92 2439.57 1853.92 2439.57 1853.92 2437.42 1853 2434.64 1850.99 2435.27 1844.22L2445.46 1771.98C2445.64 1770.34 2446.12 1768.75 2446.87 1767.27 2447.31 1766.45 2447.83 1765.67 2448.41 1764.94 2454.8 1758.14 2462.77 1753.03 2471.63 1750.08 2477.34 1748.08 2483.36 1747.06 2489.42 1747.06L2489.75 1747.06C2489.86 1747.04 2489.98 1747.02 2490.09 1746.99 2490.2 1747.02 2490.32 1747.04 2490.43 1747.06L2490.76 1747.06C2496.83 1747.06 2502.86 1748.09 2508.59 1750.11 2517.36 1753.03 2525.27 1758.08 2531.62 1764.8 2532.26 1765.57 2532.83 1766.4 2533.31 1767.27 2534.06 1768.75 2534.54 1770.34 2534.72 1771.98L2544.89 1844.04C2545.53 1850.97 2542.76 1852.98 2540.61 1853.9 2538.86 1854.64 2538.05 1856.66 2538.8 1858.41 2539.34 1859.68 2540.59 1860.51 2541.98 1860.5 2542.44 1860.5 2542.9 1860.41 2543.33 1860.22 2547.71 1858.36 2552.73 1853.92 2551.73 1843.24Z"
             id="path32" /><path
             d="M2517.57 1805.65C2517.57 1805.6 2517.6 1805.55 2517.6 1805.5L2517.6 1778C2517.6 1776.1 2516.06 1774.56 2514.16 1774.56 2512.26 1774.56 2510.72 1776.1 2510.72 1778L2510.72 1805.5C2510.72 1805.58 2510.77 1805.65 2510.77 1805.74 2510.7 1806.21 2510.73 1806.7 2510.85 1807.16L2533.68 1888 2446.51 1888 2469.34 1806.43 2469.47 1778C2469.47 1776.1 2467.93 1774.56 2466.03 1774.56 2464.14 1774.56 2462.6 1776.1 2462.6 1778L2462.6 1805.03 2437.44 1894.87 2459.16 1894.87 2459.16 1987.69 2521.03 1987.69 2521.03 1894.87 2542.77 1894.87ZM2466.03 1894.87 2486.66 1894.87 2486.66 1980.81 2466.03 1980.81ZM2514.16 1980.81 2493.53 1980.81 2493.53 1894.87 2514.16 1894.87Z"
             id="path33" /></g></g></g><text
       font-family="Calibri,Calibri_MSFontService,sans-serif"
       font-weight="400"
       font-size="83"
       transform="matrix(1 0 0 1 825.52 1761)"
       id="text35">Crowd</text><text
       font-family="Calibri,Calibri_MSFontService,sans-serif"
       font-weight="400"
       font-size="83"
       transform="matrix(1 0 0 1 3060.04 1761)"
       id="text36">Completes</text><text
       font-family="Calibri,Calibri_MSFontService,sans-serif"
       font-weight="400"
       font-size="83"
       transform="matrix(1 0 0 1 3435.69 1761)"
       id="text37">Task</text><g
       id="g45"><g
         id="g44"><g
           id="g43"><path
             d="M135.938 202.396 154.063 202.396 154.063 226.563 135.938 226.563Z"
             transform="matrix(1 0 0 1.00345 1580 947)"
             id="path37" /><path
             d="M135.938 238.646 154.063 238.646 154.063 256.771 135.938 256.771Z"
             transform="matrix(1 0 0 1.00345 1580 947)"
             id="path38" /><path
             d="M166.146 238.646 253.75 238.646 253.75 256.771 166.146 256.771Z"
             transform="matrix(1 0 0 1.00345 1580 947)"
             id="path39" /><path
             d="M36.25 238.646 123.854 238.646 123.854 256.771 36.25 256.771Z"
             transform="matrix(1 0 0 1.00345 1580 947)"
             id="path40" /><path
             d="M230.852 154.063 59.1479 154.063C53.1751 154.063 48.3334 158.904 48.3334 164.877L48.3334 191.581C48.3334 197.554 53.1751 202.396 59.1479 202.396L230.852 202.396C236.825 202.396 241.667 197.554 241.667 191.581L241.667 164.877C241.667 158.904 236.825 154.063 230.852 154.063ZM78.5417 184.271C75.2049 184.271 72.5 181.566 72.5 178.229 72.5 174.892 75.2049 172.188 78.5417 172.188 81.8785 172.188 84.5834 174.892 84.5834 178.229 84.5834 181.566 81.8785 184.271 78.5417 184.271ZM108.75 184.271C105.413 184.271 102.708 181.566 102.708 178.229 102.708 174.892 105.413 172.188 108.75 172.188 112.087 172.188 114.792 174.892 114.792 178.229 114.792 181.566 112.087 184.271 108.75 184.271ZM138.958 184.271C135.622 184.271 132.917 181.566 132.917 178.229 132.917 174.892 135.622 172.188 138.958 172.188 142.295 172.188 145 174.892 145 178.229 145 181.566 142.295 184.271 138.958 184.271Z"
             transform="matrix(1 0 0 1.00345 1580 947)"
             id="path41" /><path
             d="M230.852 93.6459 59.1479 93.6459C53.1751 93.6459 48.3334 98.4877 48.3334 104.46L48.3334 131.165C48.3334 137.137 53.1751 141.979 59.1479 141.979L230.852 141.979C236.825 141.979 241.667 137.137 241.667 131.165L241.667 104.46C241.667 98.4877 236.825 93.6459 230.852 93.6459ZM78.5417 123.854C75.2049 123.854 72.5 121.149 72.5 117.813 72.5 114.476 75.2049 111.771 78.5417 111.771 81.8785 111.771 84.5834 114.476 84.5834 117.813 84.5834 121.149 81.8785 123.854 78.5417 123.854ZM108.75 123.854C105.413 123.854 102.708 121.149 102.708 117.813 102.708 114.476 105.413 111.771 108.75 111.771 112.087 111.771 114.792 114.476 114.792 117.813 114.792 121.149 112.087 123.854 108.75 123.854ZM138.958 123.854C135.622 123.854 132.917 121.149 132.917 117.813 132.917 114.476 135.622 111.771 138.958 111.771 142.295 111.771 145 114.476 145 117.813 145 121.149 142.295 123.854 138.958 123.854Z"
             transform="matrix(1 0 0 1.00345 1580 947)"
             id="path42" /><path
             d="M230.852 33.2292 59.1479 33.2292C53.1751 33.2292 48.3334 38.071 48.3334 44.0438L48.3334 70.7479C48.3334 76.7207 53.1751 81.5625 59.1479 81.5625L230.852 81.5625C236.825 81.5625 241.667 76.7207 241.667 70.7479L241.667 44.0438C241.667 38.071 236.825 33.2292 230.852 33.2292ZM78.5417 63.4375C75.2049 63.4375 72.5 60.7327 72.5 57.3959 72.5 54.059 75.2049 51.3542 78.5417 51.3542 81.8785 51.3542 84.5834 54.059 84.5834 57.3959 84.5834 60.7327 81.8785 63.4375 78.5417 63.4375ZM108.75 63.4375C105.413 63.4375 102.708 60.7327 102.708 57.3959 102.708 54.059 105.413 51.3542 108.75 51.3542 112.087 51.3542 114.792 54.059 114.792 57.3959 114.792 60.7327 112.087 63.4375 108.75 63.4375ZM138.958 63.4375C135.622 63.4375 132.917 60.7327 132.917 57.3959 132.917 54.059 135.622 51.3542 138.958 51.3542 142.295 51.3542 145 54.059 145 57.3959 145 60.7327 142.295 63.4375 138.958 63.4375Z"
             transform="matrix(1 0 0 1.00345 1580 947)"
             id="path43" /></g></g></g><g
       id="g53"><g
         id="g52"><g
           id="g51"><path
             d="M2569.41 1150.09 2587.59 1150.09 2587.59 1174.34 2569.41 1174.34Z"
             id="path45" /><path
             d="M2569.41 1186.47 2587.59 1186.47 2587.59 1204.66 2569.41 1204.66Z"
             id="path46" /><path
             d="M2599.72 1186.47 2687.62 1186.47 2687.62 1204.66 2599.72 1204.66Z"
             id="path47" /><path
             d="M2469.38 1186.47 2557.28 1186.47 2557.28 1204.66 2469.38 1204.66Z"
             id="path48" /><path
             d="M2664.65 1101.59 2492.35 1101.59C2486.36 1101.59 2481.5 1106.45 2481.5 1112.45L2481.5 1139.24C2481.5 1145.24 2486.36 1150.09 2492.35 1150.09L2664.65 1150.09C2670.64 1150.09 2675.5 1145.24 2675.5 1139.24L2675.5 1112.45C2675.5 1106.45 2670.64 1101.59 2664.65 1101.59ZM2511.81 1131.91C2508.46 1131.91 2505.75 1129.19 2505.75 1125.84 2505.75 1122.5 2508.46 1119.78 2511.81 1119.78 2515.16 1119.78 2517.88 1122.5 2517.88 1125.84 2517.88 1129.19 2515.16 1131.91 2511.81 1131.91ZM2542.12 1131.91C2538.78 1131.91 2536.06 1129.19 2536.06 1125.84 2536.06 1122.5 2538.78 1119.78 2542.12 1119.78 2545.47 1119.78 2548.19 1122.5 2548.19 1125.84 2548.19 1129.19 2545.47 1131.91 2542.12 1131.91ZM2572.44 1131.91C2569.09 1131.91 2566.38 1129.19 2566.38 1125.84 2566.38 1122.5 2569.09 1119.78 2572.44 1119.78 2575.79 1119.78 2578.5 1122.5 2578.5 1125.84 2578.5 1129.19 2575.79 1131.91 2572.44 1131.91Z"
             id="path49" /><path
             d="M2664.65 1040.97 2492.35 1040.97C2486.36 1040.97 2481.5 1045.83 2481.5 1051.82L2481.5 1078.62C2481.5 1084.61 2486.36 1089.47 2492.35 1089.47L2664.65 1089.47C2670.64 1089.47 2675.5 1084.61 2675.5 1078.62L2675.5 1051.82C2675.5 1045.83 2670.64 1040.97 2664.65 1040.97ZM2511.81 1071.28C2508.46 1071.28 2505.75 1068.57 2505.75 1065.22 2505.75 1061.87 2508.46 1059.16 2511.81 1059.16 2515.16 1059.16 2517.88 1061.87 2517.88 1065.22 2517.88 1068.57 2515.16 1071.28 2511.81 1071.28ZM2542.12 1071.28C2538.78 1071.28 2536.06 1068.57 2536.06 1065.22 2536.06 1061.87 2538.78 1059.16 2542.12 1059.16 2545.47 1059.16 2548.19 1061.87 2548.19 1065.22 2548.19 1068.57 2545.47 1071.28 2542.12 1071.28ZM2572.44 1071.28C2569.09 1071.28 2566.38 1068.57 2566.38 1065.22 2566.38 1061.87 2569.09 1059.16 2572.44 1059.16 2575.79 1059.16 2578.5 1061.87 2578.5 1065.22 2578.5 1068.57 2575.79 1071.28 2572.44 1071.28Z"
             id="path50" /><path
             d="M2664.65 980.344 2492.35 980.344C2486.36 980.344 2481.5 985.202 2481.5 991.196L2481.5 1017.99C2481.5 1023.99 2486.36 1028.84 2492.35 1028.84L2664.65 1028.84C2670.64 1028.84 2675.5 1023.99 2675.5 1017.99L2675.5 991.196C2675.5 985.202 2670.64 980.344 2664.65 980.344ZM2511.81 1010.66C2508.46 1010.66 2505.75 1007.94 2505.75 1004.59 2505.75 1001.25 2508.46 998.531 2511.81 998.531 2515.16 998.531 2517.88 1001.25 2517.88 1004.59 2517.88 1007.94 2515.16 1010.66 2511.81 1010.66ZM2542.12 1010.66C2538.78 1010.66 2536.06 1007.94 2536.06 1004.59 2536.06 1001.25 2538.78 998.531 2542.12 998.531 2545.47 998.531 2548.19 1001.25 2548.19 1004.59 2548.19 1007.94 2545.47 1010.66 2542.12 1010.66ZM2572.44 1010.66C2569.09 1010.66 2566.38 1007.94 2566.38 1004.59 2566.38 1001.25 2569.09 998.531 2572.44 998.531 2575.79 998.531 2578.5 1001.25 2578.5 1004.59 2578.5 1007.94 2575.79 1010.66 2572.44 1010.66Z"
             id="path51" /></g></g></g><g
       id="g61"><g
         id="g60"><g
           id="g59"><path
             d="M135.937 202.396 154.062 202.396 154.062 226.562 135.937 226.562Z"
             transform="matrix(1 0 0 1.00345 2007 947)"
             id="path53" /><path
             d="M135.937 238.646 154.062 238.646 154.062 256.771 135.937 256.771Z"
             transform="matrix(1 0 0 1.00345 2007 947)"
             id="path54" /><path
             d="M166.146 238.646 253.75 238.646 253.75 256.771 166.146 256.771Z"
             transform="matrix(1 0 0 1.00345 2007 947)"
             id="path55" /><path
             d="M36.25 238.646 123.854 238.646 123.854 256.771 36.25 256.771Z"
             transform="matrix(1 0 0 1.00345 2007 947)"
             id="path56" /><path
             d="M230.852 154.062 59.1479 154.062C53.1751 154.062 48.3333 158.904 48.3333 164.877L48.3333 191.581C48.3333 197.554 53.1751 202.396 59.1479 202.396L230.852 202.396C236.825 202.396 241.666 197.554 241.666 191.581L241.666 164.877C241.666 158.904 236.825 154.062 230.852 154.062ZM78.5416 184.271C75.2048 184.271 72.4999 181.566 72.4999 178.229 72.4999 174.892 75.2048 172.187 78.5416 172.187 81.8784 172.187 84.5833 174.892 84.5833 178.229 84.5833 181.566 81.8784 184.271 78.5416 184.271ZM108.75 184.271C105.413 184.271 102.708 181.566 102.708 178.229 102.708 174.892 105.413 172.187 108.75 172.187 112.087 172.187 114.792 174.892 114.792 178.229 114.792 181.566 112.087 184.271 108.75 184.271ZM138.958 184.271C135.621 184.271 132.917 181.566 132.917 178.229 132.917 174.892 135.621 172.187 138.958 172.187 142.295 172.187 145 174.892 145 178.229 145 181.566 142.295 184.271 138.958 184.271Z"
             transform="matrix(1 0 0 1.00345 2007 947)"
             id="path57" /><path
             d="M230.852 93.6458 59.1479 93.6458C53.1751 93.6458 48.3333 98.4875 48.3333 104.46L48.3333 131.164C48.3333 137.137 53.1751 141.979 59.1479 141.979L230.852 141.979C236.825 141.979 241.666 137.137 241.666 131.164L241.666 104.46C241.666 98.4875 236.825 93.6458 230.852 93.6458ZM78.5416 123.854C75.2048 123.854 72.4999 121.149 72.4999 117.812 72.4999 114.476 75.2048 111.771 78.5416 111.771 81.8784 111.771 84.5833 114.476 84.5833 117.812 84.5833 121.149 81.8784 123.854 78.5416 123.854ZM108.75 123.854C105.413 123.854 102.708 121.149 102.708 117.812 102.708 114.476 105.413 111.771 108.75 111.771 112.087 111.771 114.792 114.476 114.792 117.812 114.792 121.149 112.087 123.854 108.75 123.854ZM138.958 123.854C135.621 123.854 132.917 121.149 132.917 117.812 132.917 114.476 135.621 111.771 138.958 111.771 142.295 111.771 145 114.476 145 117.812 145 121.149 142.295 123.854 138.958 123.854Z"
             transform="matrix(1 0 0 1.00345 2007 947)"
             id="path58" /><path
             d="M230.852 33.2291 59.1479 33.2291C53.1751 33.2291 48.3333 38.0709 48.3333 44.0437L48.3333 70.7479C48.3333 76.7206 53.1751 81.5624 59.1479 81.5624L230.852 81.5624C236.825 81.5624 241.666 76.7206 241.666 70.7479L241.666 44.0437C241.666 38.0709 236.825 33.2291 230.852 33.2291ZM78.5416 63.4374C75.2048 63.4374 72.4999 60.7326 72.4999 57.3958 72.4999 54.059 75.2048 51.3541 78.5416 51.3541 81.8784 51.3541 84.5833 54.059 84.5833 57.3958 84.5833 60.7326 81.8784 63.4374 78.5416 63.4374ZM108.75 63.4374C105.413 63.4374 102.708 60.7326 102.708 57.3958 102.708 54.059 105.413 51.3541 108.75 51.3541 112.087 51.3541 114.792 54.059 114.792 57.3958 114.792 60.7326 112.087 63.4374 108.75 63.4374ZM138.958 63.4374C135.621 63.4374 132.917 60.7326 132.917 57.3958 132.917 54.059 135.621 51.3541 138.958 51.3541 142.295 51.3541 145 54.059 145 57.3958 145 60.7326 142.295 63.4374 138.958 63.4374Z"
             transform="matrix(1 0 0 1.00345 2007 947)"
             id="path59" /></g></g></g><text
       font-family="Calibri,Calibri_MSFontService,sans-serif"
       font-weight="400"
       font-size="83"
       transform="matrix(1 0 0 1 667.366 1088)"
       id="text61">Data </text><text
       font-family="Calibri,Calibri_MSFontService,sans-serif"
       font-weight="400"
       font-size="83"
       transform="matrix(1 0 0 1 842.06 1088)"
       id="text62">Processing</text><text
       font-family="Calibri,Calibri_MSFontService,sans-serif"
       font-weight="400"
       font-size="83"
       transform="matrix(1 0 0 1 1215.99 1088)"
       id="text63">Platform</text><text
       font-family="Calibri,Calibri_MSFontService,sans-serif"
       font-weight="400"
       font-size="83"
       transform="matrix(1 0 0 1 3060.04 1053)"
       id="text64">Allocates</text><text
       font-family="Calibri,Calibri_MSFontService,sans-serif"
       font-weight="400"
       font-size="83"
       transform="matrix(1 0 0 1 3380.83 1053)"
       id="text65">Task</text><text
       font-family="Calibri,Calibri_MSFontService,sans-serif"
       font-weight="400"
       font-size="83"
       transform="matrix(1 0 0 1 3060.04 1154)"
       id="text66">Processes</text><text
       font-family="Calibri,Calibri_MSFontService,sans-serif"
       font-weight="400"
       font-size="83"
       transform="matrix(1 0 0 1 3405.9 1154)"
       id="text67">and</text><text
       font-family="Calibri,Calibri_MSFontService,sans-serif"
       font-weight="400"
       font-size="83"
       transform="matrix(1 0 0 1 3060.04 1253)"
       id="text68">Aggregates </text><text
       font-family="Calibri,Calibri_MSFontService,sans-serif"
       font-weight="400"
       font-size="83"
       transform="matrix(1 0 0 1 3450.13 1253)"
       id="text69">Results</text><g
       id="g72"><g
         id="g71"><g
           id="g70"><path
             d="M1959.5 511.375 1794.5 511.375 1794.5 401.375 1959.5 401.375 1959.5 511.375ZM1966.37 380.75 1787.62 380.75C1780.06 380.75 1773.87 386.938 1773.87 394.5L1773.87 518.25C1773.87 525.813 1780.06 532 1787.62 532L1856.37 532 1856.37 552.625 1825.44 552.625 1825.44 573.25 1928.56 573.25 1928.56 552.625 1897.62 552.625 1897.62 532 1966.37 532C1973.94 532 1980.12 525.813 1980.12 518.25L1980.12 394.5C1980.12 386.938 1973.94 380.75 1966.37 380.75Z"
             id="path69" /><path
             d="M2076.38 415.125 2007.62 415.125 2007.62 394.5 2076.38 394.5 2076.38 415.125ZM2076.38 449.5 2007.62 449.5 2007.62 428.875 2076.38 428.875 2076.38 449.5ZM2042 552.625C2036.16 552.625 2031.69 548.156 2031.69 542.313 2031.69 536.469 2036.16 532 2042 532 2047.84 532 2052.31 536.469 2052.31 542.313 2052.31 548.156 2047.84 552.625 2042 552.625ZM2076.38 380.75 2007.62 380.75C2000.06 380.75 1993.87 386.938 1993.87 394.5L1993.87 559.5C1993.87 567.063 2000.06 573.25 2007.62 573.25L2076.38 573.25C2083.94 573.25 2090.12 567.063 2090.12 559.5L2090.12 394.5C2090.12 386.938 2083.94 380.75 2076.38 380.75Z"
             id="path70" /></g></g></g><g
       clip-path="url(#clip0)"
       id="g76"><g
         clip-path="url(#clip1)"
         id="g75"><g
           clip-path="url(#clip2)"
           id="g74"><path
             d="M2373.05 414.929 2369.1 413.349 2315.34 547.502 2394.23 579.119 2447.99 444.966 2373.05 414.929ZM2391.86 573.594 2320.86 545.139 2371.47 418.874 2442.47 447.329Z"
             id="path72" /><path
             d="M2461.81 427.615 2371.09 391.255C2368.91 390.39 2366.44 391.446 2365.57 393.619L2299.15 559.334C2298.29 561.512 2299.34 563.98 2301.51 564.859L2392.24 601.219C2394.41 602.082 2396.88 601.026 2397.76 598.855L2464.18 433.14C2465.04 430.962 2463.98 428.494 2461.81 427.615ZM2393.82 597.274 2303.09 560.914 2369.51 395.2 2460.23 431.559Z"
             id="path73" /><path
             d="M2403.03 420.079 2420.78 427.193C2421.87 427.629 2423.11 427.1 2423.54 426.011 2423.98 424.922 2423.45 423.685 2422.36 423.248L2404.61 416.134C2403.52 415.698 2402.28 416.227 2401.85 417.316 2401.41 418.405 2401.94 419.642 2403.03 420.079Z"
             id="path74" /></g></g></g><text
       font-family="Calibri,Calibri_MSFontService,sans-serif"
       font-weight="400"
       font-size="83"
       transform="matrix(1 0 0 1 743.474 481)"
       id="text76">Application</text><text
       font-family="Calibri,Calibri_MSFontService,sans-serif"
       font-weight="400"
       font-size="83"
       transform="matrix(1 0 0 1 1141.35 481)"
       id="text77">User</text><text
       font-family="Calibri,Calibri_MSFontService,sans-serif"
       font-weight="400"
       font-size="83"
       transform="matrix(1 0 0 1 3060.04 481)"
       id="text78">Requests</text><text
       font-family="Calibri,Calibri_MSFontService,sans-serif"
       font-weight="400"
       font-size="83"
       transform="matrix(1 0 0 1 3382.52 481)"
       id="text79">Task</text><path
       d="M1730.79 1270.17 1990.83 1514.8 1989.26 1516.47 1729.21 1271.83ZM1996.13 1502.48 2006.74 1531.34 1977.29 1522.51Z"
       id="path79" /><path
       d="M2318.17 1546.95 2562.8 1286.91 2564.47 1288.48 2319.83 1548.52ZM2550.48 1281.61 2579.34 1271 2570.51 1300.45Z"
       id="path80" /><path
       d="M2579.95 931.175 2319.91 686.537 2321.48 684.868 2581.52 929.506ZM2314.61 698.858 2304 670 2333.45 678.828Z"
       id="path81" /><path
       d="M1985.17 661.785 1740.54 921.832 1738.87 920.262 1983.51 660.215ZM1752.86 927.13 1724 937.739 1732.83 908.287Z"
       id="path82" /><g
       id="g86"><g
         id="g85"><g
           id="g84"><path
             d="M78.4491 49.3449C72.8928 49.3449 68.5272 44.8469 68.5272 39.423 68.5272 33.999 73.0251 29.5011 78.4491 29.5011 84.0053 29.5011 88.371 33.999 88.371 39.423 88.371 44.8469 83.8731 49.3449 78.4491 49.3449ZM100.806 33.2053C100.277 31.3532 99.6158 29.6334 98.6897 28.0459L100.806 21.8282 96.0439 17.0657 89.8262 19.1823C88.2387 18.2563 86.5189 17.5948 84.6668 17.0657L81.7564 11.2448 75.1418 11.2448 72.2314 17.0657C70.3793 17.5948 68.6595 18.2563 67.072 19.1823L60.8543 17.0657 56.0918 21.8282 58.2084 28.0459C57.2824 29.6334 56.6209 31.3532 56.0918 33.2053L50.2709 36.1157 50.2709 42.7303 56.0918 45.6407C56.6209 47.4928 57.2824 49.2126 58.2084 50.8001L56.0918 57.0178 60.722 61.648 66.9397 59.5313C68.5272 60.4574 70.247 61.1188 72.0991 61.648L75.0095 67.4689 81.6241 67.4689 84.5345 61.648C86.3866 61.1188 88.1064 60.4574 89.6939 59.5313L95.9116 61.648 100.674 57.0178 98.5574 50.8001C99.4835 49.2126 100.277 47.3605 100.806 45.6407L106.627 42.7303 106.627 36.1157 100.806 33.2053Z"
             transform="matrix(1 0 0 1.00787 1704 1870)"
             id="path83" /><path
             d="M48.5511 97.4991C42.9949 97.4991 38.6292 93.0012 38.6292 87.5772 38.6292 82.021 43.1272 77.6553 48.5511 77.6553 54.1074 77.6553 58.473 82.1533 58.473 87.5772 58.473 93.0012 54.1074 97.4991 48.5511 97.4991L48.5511 97.4991ZM68.7918 76.2001 70.9084 69.9824 66.1459 65.2199 59.9282 67.3366C58.3407 66.4105 56.4886 65.7491 54.7688 65.2199L51.8584 59.3991 45.2438 59.3991 42.3334 65.2199C40.4813 65.7491 38.7615 66.4105 37.174 67.3366L30.9563 65.2199 26.3261 69.8501 28.3105 76.0678C27.3844 77.6553 26.723 79.5074 26.1938 81.2272L20.3729 84.1376 20.3729 90.7522 26.1938 93.6627C26.723 95.5147 27.3844 97.2345 28.3105 98.822L26.3261 105.04 30.9563 109.67 37.174 107.686C38.7615 108.612 40.4813 109.273 42.3334 109.802L45.2438 115.623 51.8584 115.623 54.7688 109.802C56.6209 109.273 58.3407 108.612 59.9282 107.686L66.1459 109.802 70.7762 105.04 68.7918 98.9543C69.7178 97.3668 70.3793 95.647 70.9084 93.7949L76.7293 90.8845 76.7293 84.2699 70.9084 81.3595C70.3793 79.5074 69.7178 77.7876 68.7918 76.2001Z"
             transform="matrix(1 0 0 1.00787 1704 1870)"
             id="path84" /></g></g></g><g
       id="g91"><g
         id="g90"><g
           id="g89"><path
             d="M1512.01 1916.01C1512.93 1914.41 1513.67 1912.71 1514.22 1910.94L1519.95 1908.07 1519.95 1901.56 1514.22 1898.7C1513.74 1896.92 1513.04 1895.22 1512.14 1893.62L1514.22 1887.5 1509.53 1882.81 1503.41 1884.89C1501.81 1883.98 1500.11 1883.28 1498.33 1882.8L1495.47 1877.07 1488.96 1877.07 1486.09 1882.8C1484.32 1883.28 1482.61 1883.98 1481.02 1884.88L1474.9 1882.8 1470.21 1887.48 1472.29 1893.6C1471.39 1895.2 1470.69 1896.91 1470.21 1898.68L1464.48 1901.55 1464.48 1908.06 1470.21 1910.92C1470.69 1912.7 1471.39 1914.4 1472.29 1916L1470.21 1922.12 1474.77 1926.68 1480.89 1924.59C1482.48 1925.5 1484.19 1926.2 1485.96 1926.68L1488.83 1932.41 1495.34 1932.41 1498.2 1926.68C1499.98 1926.2 1501.68 1925.5 1503.28 1924.59L1509.4 1926.68 1514.09 1922.12ZM1509.54 1916.85 1511.09 1921.42 1508.73 1923.71 1504.12 1922.14 1503 1921.76 1501.97 1922.36C1500.56 1923.16 1499.05 1923.77 1497.49 1924.19L1496.39 1924.51 1495.87 1925.53 1493.73 1929.83 1490.44 1929.83 1488.3 1925.53 1487.78 1924.51 1486.68 1924.19C1485.12 1923.77 1483.61 1923.16 1482.2 1922.36L1481.17 1921.76 1480.05 1922.14 1475.46 1923.71 1473.2 1921.44 1474.76 1916.85 1475.14 1915.73 1474.54 1914.7C1473.75 1913.29 1473.14 1911.79 1472.72 1910.22L1472.41 1909.12 1471.38 1908.61 1467.08 1906.46 1467.08 1903.17 1471.38 1901.03 1472.4 1900.51 1472.72 1899.41C1473.13 1897.85 1473.75 1896.34 1474.54 1894.93L1475.14 1893.9 1474.76 1892.78 1473.2 1888.19 1475.59 1885.79 1480.18 1887.36 1481.3 1887.75 1482.33 1887.15C1483.74 1886.35 1485.24 1885.74 1486.81 1885.32L1487.92 1884.99 1488.43 1883.97 1490.57 1879.67 1493.87 1879.67 1496.01 1883.97 1496.52 1884.99 1497.62 1885.31C1499.19 1885.72 1500.69 1886.33 1502.11 1887.13L1503.13 1887.73 1504.26 1887.34 1508.84 1885.78 1511.24 1888.17 1509.68 1892.76 1509.29 1893.88 1509.89 1894.91C1510.69 1896.32 1511.3 1897.83 1511.72 1899.39L1512.04 1900.49 1513.06 1901.01 1517.36 1903.15 1517.36 1906.45 1513.06 1908.59 1512.06 1909.09 1511.74 1910.16C1511.25 1911.74 1510.58 1913.26 1509.76 1914.7L1509.16 1915.72Z"
             id="path86" /><path
             d="M1435.05 1948.84 1435.05 1955.35 1440.78 1958.21C1441.26 1959.98 1441.96 1961.69 1442.86 1963.29L1440.91 1969.41 1445.47 1973.97 1451.59 1972.01C1453.19 1972.92 1454.89 1973.62 1456.67 1974.1L1459.53 1979.83 1466.04 1979.83 1468.91 1974.1C1470.68 1973.62 1472.39 1972.92 1473.98 1972.01L1480.1 1974.1 1484.66 1969.41 1482.71 1963.42C1483.61 1961.82 1484.31 1960.11 1484.79 1958.34L1490.52 1955.48 1490.52 1948.97 1484.79 1946.1C1484.31 1944.33 1483.61 1942.62 1482.71 1941.02L1484.79 1934.9 1480.1 1930.22 1473.98 1932.3C1472.37 1931.42 1470.67 1930.72 1468.91 1930.22L1466.04 1924.49 1459.53 1924.49 1456.67 1930.22C1454.89 1930.69 1453.19 1931.39 1451.59 1932.3L1445.47 1930.22 1440.91 1934.77 1442.86 1940.89C1441.98 1942.5 1441.28 1944.21 1440.78 1945.97ZM1442.94 1947.79 1443.27 1946.73C1443.72 1945.16 1444.34 1943.64 1445.11 1942.2L1445.7 1941.2 1445.34 1940.09 1443.87 1935.48 1446.16 1933.19 1450.75 1934.75 1451.87 1935.14 1452.9 1934.54C1454.31 1933.74 1455.82 1933.13 1457.38 1932.71L1458.49 1932.41 1459 1931.38 1461.15 1927.08 1464.44 1927.08 1466.58 1931.38 1467.08 1932.38 1468.15 1932.71C1469.72 1933.15 1471.24 1933.77 1472.68 1934.55L1473.71 1935.15 1474.83 1934.77 1479.42 1933.2 1481.81 1935.6 1480.25 1940.19 1479.87 1941.31 1480.46 1942.34C1481.26 1943.75 1481.88 1945.26 1482.29 1946.82L1482.61 1947.92 1483.63 1948.43 1487.92 1950.58 1487.92 1953.87 1483.62 1956.01 1482.59 1956.53 1482.28 1957.63C1481.86 1959.19 1481.25 1960.7 1480.45 1962.11L1479.86 1963.12 1480.23 1964.23 1481.69 1968.73 1479.39 1971.11 1474.83 1969.55 1473.71 1969.17 1472.68 1969.77C1471.27 1970.57 1469.76 1971.18 1468.19 1971.6L1467.09 1971.91 1466.58 1972.94 1464.43 1977.24 1461.14 1977.24 1459 1972.94 1458.49 1971.91 1457.38 1971.6C1455.82 1971.18 1454.31 1970.57 1452.9 1969.77L1451.9 1969.19 1450.8 1969.54 1446.19 1971.01 1443.88 1968.7 1445.35 1964.08 1445.7 1962.98 1445.12 1961.98C1444.32 1960.57 1443.7 1959.06 1443.29 1957.5L1442.97 1956.4 1441.95 1955.88 1437.65 1953.74 1437.65 1950.45 1441.95 1948.3Z"
             id="path87" /><path
             d="M1492.21 1895.04C1486.82 1895.04 1482.45 1899.42 1482.45 1904.81 1482.45 1910.2 1486.82 1914.58 1492.21 1914.58 1497.61 1914.58 1501.98 1910.2 1501.98 1904.81 1501.94 1899.43 1497.59 1895.08 1492.21 1895.04ZM1492.21 1911.97C1488.26 1911.97 1485.06 1908.76 1485.05 1904.81 1485.1 1900.88 1488.28 1897.7 1492.21 1897.65 1496.17 1897.65 1499.37 1900.86 1499.38 1904.81 1499.33 1908.75 1496.15 1911.92 1492.21 1911.98Z"
             id="path88" /><path
             d="M1462.79 1961.99C1468.18 1961.99 1472.55 1957.62 1472.55 1952.23 1472.55 1946.83 1468.18 1942.46 1462.79 1942.46 1457.39 1942.46 1453.02 1946.83 1453.02 1952.23 1453.01 1957.61 1457.38 1961.98 1462.76 1961.99 1462.77 1961.99 1462.78 1961.99 1462.79 1961.99ZM1462.79 1945.06C1466.74 1945.06 1469.95 1948.26 1469.95 1952.22 1469.95 1956.17 1466.74 1959.38 1462.79 1959.38 1458.83 1959.38 1455.62 1956.17 1455.62 1952.22 1455.63 1948.27 1458.83 1945.06 1462.79 1945.06Z"
             id="path89" /></g></g></g><g
       id="g96"><g
         id="g95"><g
           id="g94"><path
             d="M2093.01 1923.01C2093.93 1921.41 2094.67 1919.71 2095.22 1917.94L2100.95 1915.07 2100.95 1908.56 2095.22 1905.7C2094.74 1903.92 2094.04 1902.22 2093.14 1900.62L2095.22 1894.5 2090.53 1889.81 2084.41 1891.89C2082.81 1890.98 2081.11 1890.28 2079.33 1889.8L2076.47 1884.07 2069.96 1884.07 2067.09 1889.8C2065.32 1890.28 2063.61 1890.98 2062.02 1891.88L2055.9 1889.8 2051.21 1894.48 2053.29 1900.6C2052.39 1902.2 2051.69 1903.91 2051.21 1905.68L2045.48 1908.55 2045.48 1915.06 2051.21 1917.92C2051.69 1919.7 2052.39 1921.4 2053.29 1923L2051.21 1929.12 2055.77 1933.68 2061.89 1931.59C2063.48 1932.5 2065.19 1933.2 2066.96 1933.68L2069.83 1939.41 2076.34 1939.41 2079.2 1933.68C2080.98 1933.2 2082.68 1932.5 2084.28 1931.59L2090.4 1933.68 2095.09 1929.12ZM2090.54 1923.85 2092.09 1928.42 2089.73 1930.71 2085.12 1929.14 2084 1928.76 2082.97 1929.36C2081.56 1930.16 2080.05 1930.77 2078.49 1931.19L2077.39 1931.51 2076.87 1932.53 2074.73 1936.83 2071.44 1936.83 2069.3 1932.53 2068.78 1931.51 2067.68 1931.19C2066.12 1930.77 2064.61 1930.16 2063.2 1929.36L2062.17 1928.76 2061.05 1929.14 2056.46 1930.71 2054.2 1928.44 2055.76 1923.85 2056.14 1922.73 2055.54 1921.7C2054.75 1920.29 2054.14 1918.79 2053.72 1917.22L2053.41 1916.12 2052.38 1915.61 2048.08 1913.46 2048.08 1910.17 2052.38 1908.03 2053.4 1907.51 2053.72 1906.41C2054.13 1904.85 2054.75 1903.34 2055.54 1901.93L2056.14 1900.9 2055.76 1899.78 2054.2 1895.19 2056.59 1892.79 2061.18 1894.36 2062.3 1894.75 2063.33 1894.15C2064.74 1893.35 2066.24 1892.74 2067.81 1892.32L2068.92 1891.99 2069.43 1890.97 2071.57 1886.67 2074.87 1886.67 2077.01 1890.97 2077.52 1891.99 2078.62 1892.31C2080.19 1892.72 2081.69 1893.33 2083.11 1894.13L2084.13 1894.73 2085.26 1894.34 2089.84 1892.78 2092.24 1895.17 2090.68 1899.76 2090.29 1900.88 2090.89 1901.91C2091.69 1903.32 2092.3 1904.83 2092.72 1906.39L2093.04 1907.49 2094.06 1908.01 2098.36 1910.15 2098.36 1913.45 2094.06 1915.59 2093.06 1916.09 2092.74 1917.16C2092.25 1918.74 2091.58 1920.26 2090.76 1921.7L2090.16 1922.72Z"
             id="path91" /><path
             d="M2016.05 1955.84 2016.05 1962.35 2021.78 1965.21C2022.26 1966.98 2022.96 1968.69 2023.86 1970.29L2021.91 1976.41 2026.47 1980.97 2032.59 1979.01C2034.19 1979.92 2035.89 1980.62 2037.67 1981.1L2040.53 1986.83 2047.04 1986.83 2049.91 1981.1C2051.68 1980.62 2053.39 1979.92 2054.98 1979.01L2061.1 1981.1 2065.66 1976.41 2063.71 1970.42C2064.61 1968.82 2065.31 1967.11 2065.79 1965.34L2071.52 1962.48 2071.52 1955.97 2065.79 1953.1C2065.31 1951.33 2064.61 1949.62 2063.71 1948.02L2065.79 1941.9 2061.1 1937.22 2054.98 1939.3C2053.38 1938.42 2051.67 1937.72 2049.91 1937.22L2047.04 1931.49 2040.53 1931.49 2037.67 1937.22C2035.89 1937.69 2034.19 1938.39 2032.59 1939.3L2026.47 1937.22 2021.91 1941.77 2023.86 1947.89C2022.98 1949.5 2022.28 1951.21 2021.78 1952.97ZM2023.94 1954.79 2024.27 1953.73C2024.72 1952.16 2025.34 1950.64 2026.11 1949.2L2026.7 1948.2 2026.35 1947.09 2024.88 1942.48 2027.16 1940.19 2031.75 1941.75 2032.88 1942.14 2033.9 1941.54C2035.31 1940.74 2036.82 1940.13 2038.38 1939.71L2039.49 1939.41 2040 1938.38 2042.15 1934.08 2045.44 1934.08 2047.58 1938.38 2048.08 1939.38 2049.15 1939.71C2050.72 1940.15 2052.24 1940.77 2053.68 1941.55L2054.71 1942.15 2055.83 1941.77 2060.42 1940.2 2062.81 1942.6 2061.25 1947.19 2060.87 1948.31 2061.46 1949.34C2062.26 1950.75 2062.88 1952.26 2063.29 1953.82L2063.61 1954.92 2064.63 1955.43 2068.92 1957.58 2068.92 1960.87 2064.62 1963.01 2063.59 1963.53 2063.28 1964.63C2062.86 1966.19 2062.25 1967.7 2061.45 1969.11L2060.86 1970.12 2061.23 1971.23 2062.69 1975.73 2060.39 1978.11 2055.83 1976.55 2054.71 1976.17 2053.68 1976.77C2052.27 1977.57 2050.76 1978.18 2049.19 1978.6L2048.09 1978.91 2047.58 1979.94 2045.43 1984.24 2042.14 1984.24 2040 1979.94 2039.49 1978.91 2038.38 1978.6C2036.82 1978.18 2035.31 1977.57 2033.9 1976.77L2032.9 1976.19 2031.8 1976.54 2027.19 1978.01 2024.88 1975.7 2026.35 1971.08 2026.7 1969.98 2026.12 1968.98C2025.32 1967.57 2024.7 1966.06 2024.29 1964.5L2023.97 1963.4 2022.95 1962.88 2018.65 1960.74 2018.65 1957.45 2022.95 1955.3Z"
             id="path92" /><path
             d="M2073.21 1902.04C2067.82 1902.04 2063.45 1906.42 2063.45 1911.81 2063.45 1917.2 2067.82 1921.58 2073.21 1921.58 2078.61 1921.58 2082.98 1917.2 2082.98 1911.81 2082.94 1906.43 2078.59 1902.08 2073.21 1902.04ZM2073.21 1918.97C2069.26 1918.97 2066.06 1915.76 2066.05 1911.81 2066.1 1907.88 2069.28 1904.7 2073.21 1904.65 2077.17 1904.65 2080.37 1907.86 2080.38 1911.81 2080.33 1915.75 2077.15 1918.92 2073.21 1918.98Z"
             id="path93" /><path
             d="M2043.79 1968.99C2049.18 1968.99 2053.55 1964.62 2053.55 1959.23 2053.55 1953.83 2049.18 1949.46 2043.79 1949.46 2038.39 1949.46 2034.02 1953.83 2034.02 1959.23 2034.01 1964.61 2038.38 1968.98 2043.76 1968.99 2043.77 1968.99 2043.78 1968.99 2043.79 1968.99ZM2043.79 1952.06C2047.74 1952.06 2050.95 1955.26 2050.95 1959.22 2050.95 1963.17 2047.74 1966.38 2043.79 1966.38 2039.83 1966.38 2036.62 1963.17 2036.62 1959.22 2036.63 1955.27 2039.83 1952.06 2043.79 1952.06Z"
             id="path94" /></g></g></g><g
       id="g101"><g
         id="g100"><g
           id="g99"><path
             d="M97.005 50.0142C97.9283 48.4085 98.6707 46.7054 99.2186 44.9361L104.948 42.0715 104.948 35.5611 99.2186 32.6966C98.7397 30.9233 98.0398 29.2171 97.1352 27.6184L99.2186 21.4987 94.5311 16.8112 88.4113 18.8945C86.8134 17.9849 85.1073 17.2802 83.3332 16.7968L80.4686 11.0677 73.9582 11.0677 71.0936 16.7968C69.3202 17.2754 67.6141 17.9752 66.0155 18.8802L59.8957 16.7968 55.2082 21.4843 57.2916 27.6041C56.387 29.2028 55.6871 30.9089 55.2082 32.6822L49.4791 35.5468 49.4791 42.0572 55.2082 44.9218C55.6873 46.6951 56.3873 48.4011 57.2916 49.9999L55.2082 56.1197 59.7655 60.677 65.8853 58.5936C67.484 59.4982 69.1901 60.1981 70.9634 60.677L73.828 66.4061 80.3384 66.4061 83.203 60.677C84.9763 60.1982 86.6824 59.4983 88.2811 58.5936L94.4009 60.677 99.0884 56.1197ZM94.5389 50.8528 96.0936 55.4166 93.7303 57.7147 89.1209 56.1444 87.9959 55.7616 86.9686 56.3606C85.5586 57.1574 84.053 57.7722 82.4881 58.19L81.3866 58.5051 80.8736 59.5298 78.729 63.8267 75.4413 63.8267 73.2967 59.5298 72.7837 58.5051 71.6822 58.19C70.1169 57.7722 68.6109 57.1574 67.2004 56.3606L66.1744 55.7616 65.0494 56.1444 60.4634 57.7069 58.1978 55.4413 59.7603 50.8541 60.1431 49.7291 59.5442 48.703C58.7491 47.292 58.1365 45.7855 57.7213 44.22L57.4061 43.1184 56.3827 42.6067 52.0832 40.4596 52.0832 37.1666 56.3801 35.026 57.4035 34.513 57.7186 33.4114C58.1341 31.8463 58.7466 30.3404 59.5416 28.9296L60.1405 27.9023 59.7577 26.7786 58.1952 22.1901 60.591 19.7942 65.177 21.3567 66.302 21.7474 67.328 21.1471C68.7388 20.3524 70.2448 19.7399 71.8098 19.3242L72.9165 18.9909 73.4296 17.9661 75.5741 13.6692 78.8657 13.6692 81.0103 17.9661 81.5233 18.9909 82.6236 19.306C84.1886 19.7214 85.6945 20.3339 87.1053 21.1289L88.1327 21.7291 89.2577 21.3385 93.8423 19.776 96.2381 22.1718 94.6756 26.7604 94.2928 27.8841 94.8918 28.9114C95.6884 30.3221 96.3031 31.8281 96.7212 33.3932L97.035 34.4947 98.0597 35.0077 102.357 37.1536 102.357 40.4465 98.0597 42.5924 97.0636 43.0911 96.7355 44.1562C96.2459 45.7381 95.5836 47.2611 94.7602 48.6978L94.1613 49.7239Z"
             transform="matrix(1 0 0 1 2618 1873)"
             id="path96" /><path
             d="M20.052 82.8358 20.052 89.3462 25.7812 92.2108C26.2601 93.9841 26.96 95.6902 27.8645 97.2889L25.9114 103.409 30.4687 107.966 36.5885 106.013C38.187 106.918 39.8932 107.618 41.6666 108.096L44.5312 113.825 51.0416 113.825 53.9062 108.096C55.6795 107.617 57.3856 106.917 58.9843 106.013L65.104 108.096 69.6613 103.409 67.7082 97.4191C68.6128 95.8204 69.3126 94.1143 69.7915 92.341L75.5207 89.4764 75.5207 82.966 69.7915 80.1014C69.3126 78.3281 68.6128 76.622 67.7082 75.0233L69.7915 68.9035 65.104 64.216 58.9843 66.2994C57.3749 65.4171 55.6715 64.7182 53.9062 64.216L51.0416 58.4869 44.5312 58.4869 41.6666 64.216C39.8932 64.6947 38.187 65.3945 36.5885 66.2994L30.4687 64.216 25.9114 68.7733 27.8645 74.8931C26.9824 76.5026 26.2835 78.2058 25.7812 79.9712ZM27.9427 81.7941 28.2708 80.729C28.7188 79.1557 29.3371 77.6358 30.1145 76.1965L30.6979 75.1952 30.345 74.0923 28.8749 69.4816 31.164 67.1913 35.7499 68.7538 36.8749 69.1379 37.901 68.5389C39.3113 67.7415 40.8172 67.1267 42.3827 66.7095L43.4895 66.4061 44.0025 65.3814 46.1471 61.0845 49.4387 61.0845 51.5832 65.3814 52.0819 66.3788 53.147 66.7056C54.7198 67.1547 56.2391 67.7734 57.6783 68.5507L58.7056 69.1496 59.8306 68.7655 64.4153 67.203 66.8111 69.6001 65.2486 74.1874 64.8658 75.3111 65.4647 76.3384C66.2616 77.7495 66.8763 79.2557 67.2942 80.8215L67.6079 81.9217 68.6327 82.4347 72.9165 84.5754 72.9165 87.8683 68.6197 90.0142 67.5949 90.5272 67.2811 91.6274C66.8633 93.1931 66.2486 94.6994 65.4517 96.1105L64.8632 97.1196 65.2251 98.2303 66.6913 102.726 64.3879 105.107 59.8306 103.553 58.7056 103.17 57.6783 103.769C56.267 104.567 54.7595 105.182 53.1926 105.599L52.0911 105.914 51.5793 106.939 49.4348 111.235 46.1431 111.235 43.9986 106.939 43.4856 105.914 42.384 105.599C40.8185 105.182 39.3126 104.567 37.9023 103.769L36.9023 103.186 35.7981 103.538 31.19 105.009 28.8762 102.695 30.3463 98.0845 30.6992 96.9816 30.1158 95.9803C29.3186 94.5699 28.7039 93.0639 28.2864 91.4985L27.9713 90.397 26.9479 89.8839 22.651 87.7381 22.651 84.4452 26.9479 82.2993Z"
             transform="matrix(1 0 0 1 2618 1873)"
             id="path97" /><path
             d="M77.2134 29.0442C71.8201 29.0442 67.4478 33.4165 67.4478 38.8098 67.4478 44.2032 71.8201 48.5754 77.2134 48.5754 82.6068 48.5754 86.979 44.2032 86.979 38.8098 86.9386 33.4333 82.59 29.0846 77.2134 29.0442ZM77.2134 45.9713C73.2607 45.9655 70.0577 42.7626 70.052 38.8098 70.1046 34.8766 73.2802 31.701 77.2134 31.6484 81.1661 31.6541 84.3691 34.8571 84.3749 38.8098 84.3258 42.7454 81.1488 45.9245 77.2134 45.9765Z"
             transform="matrix(1 0 0 1 2618 1873)"
             id="path98" /><path
             d="M47.7864 95.9907C53.1797 95.9907 57.552 91.6185 57.552 86.2251 57.552 80.8318 53.1797 76.4595 47.7864 76.4595 42.393 76.4595 38.0208 80.8318 38.0208 86.2251 38.0143 91.6121 42.376 95.9842 47.7629 95.9907 47.7707 95.9907 47.7786 95.9907 47.7864 95.9907ZM47.7864 79.0572C51.7416 79.0572 54.9478 82.2634 54.9478 86.2186 54.9478 90.1738 51.7416 93.38 47.7864 93.38 43.8312 93.38 40.6249 90.1738 40.6249 86.2186 40.6307 82.2659 43.8336 79.0629 47.7864 79.0572Z"
             transform="matrix(1 0 0 1 2618 1873)"
             id="path99" /></g></g></g><g
       id="g104"><g
         id="g103"><g
           id="g102"><path
             d="M78.4489 49.3447C72.8926 49.3447 68.527 44.8468 68.527 39.4229 68.527 33.9989 73.0249 29.501 78.4489 29.501 84.0051 29.501 88.3707 33.9989 88.3707 39.4229 88.3707 44.8468 83.8728 49.3447 78.4489 49.3447ZM100.806 33.2052C100.277 31.3531 99.6155 29.6333 98.6895 28.0458L100.806 21.8281 96.0436 17.0656 89.8259 19.1823C88.2384 18.2562 86.5186 17.5948 84.6666 17.0656L81.7561 11.2448 75.1416 11.2448 72.2312 17.0656C70.3791 17.5948 68.6593 18.2562 67.0718 19.1823L60.8541 17.0656 56.0916 21.8281 58.2083 28.0458C57.2822 29.6333 56.6208 31.3531 56.0916 33.2052L50.2708 36.1156 50.2708 42.7302 56.0916 45.6406C56.6208 47.4926 57.2822 49.2124 58.2083 50.7999L56.0916 57.0176 60.7218 61.6478 66.9395 59.5312C68.527 60.4572 70.2468 61.1187 72.0989 61.6478L75.0093 67.4687 81.6239 67.4687 84.5343 61.6478C86.3864 61.1187 88.1061 60.4572 89.6936 59.5312L95.9113 61.6478 100.674 57.0176 98.5572 50.7999C99.4832 49.2124 100.277 47.3604 100.806 45.6406L106.627 42.7302 106.627 36.1156 100.806 33.2052Z"
             transform="matrix(1 0 0 1.00788 2300 1877)"
             id="path101" /><path
             d="M48.551 97.4988C42.9947 97.4988 38.6291 93.0009 38.6291 87.577 38.6291 82.0207 43.127 77.6551 48.551 77.6551 54.1072 77.6551 58.4728 82.153 58.4728 87.577 58.4728 93.0009 54.1072 97.4988 48.551 97.4988L48.551 97.4988ZM68.7916 76.1999 70.9082 69.9822 66.1457 65.2197 59.928 67.3364C58.3405 66.4103 56.4885 65.7489 54.7687 65.2197L51.8583 59.3989 45.2437 59.3989 42.3333 65.2197C40.4812 65.7489 38.7614 66.4103 37.1739 67.3364L30.9562 65.2197 26.326 69.8499 28.3104 76.0676C27.3843 77.6551 26.7229 79.5072 26.1937 81.227L20.3729 84.1374 20.3729 90.752 26.1937 93.6624C26.7229 95.5145 27.3843 97.2343 28.3104 98.8217L26.326 105.039 30.9562 109.67 37.1739 107.685C38.7614 108.611 40.4812 109.273 42.3333 109.802L45.2437 115.623 51.8583 115.623 54.7687 109.802C56.6208 109.273 58.3405 108.611 59.928 107.685L66.1457 109.802 70.7759 105.039 68.7916 98.954C69.7176 97.3665 70.3791 95.6468 70.9082 93.7947L76.7291 90.8843 76.7291 84.2697 70.9082 81.3593C70.3791 79.5072 69.7176 77.7874 68.7916 76.1999Z"
             transform="matrix(1 0 0 1.00788 2300 1877)"
             id="path102" /></g></g></g><path
       d="M1703.92 1848.85 1741.12 1848.85 1741.12 1851.15 1703.92 1851.15ZM1708.5 1863.75 1681 1850 1708.5 1836.25ZM1736.54 1836.25 1764.04 1850 1736.54 1863.75Z"
       id="path104" /><path
       d="M1987.92 1852.85 2025.12 1852.85 2025.12 1855.15 1987.92 1855.15ZM1992.5 1867.75 1965 1854 1992.5 1840.25ZM2020.54 1840.25 2048.04 1854 2020.54 1867.75Z"
       id="path105" /><path
       d="M2308.92 1852.85 2346.12 1852.85 2346.12 1855.15 2308.92 1855.15ZM2313.5 1867.75 2286 1854 2313.5 1840.25ZM2341.54 1840.25 2369.04 1854 2341.54 1867.75Z"
       id="path106" /><path
       d="M2603.92 1852.85 2641.12 1852.85 2641.12 1855.15 2603.92 1855.15ZM2608.5 1867.75 2581 1854 2608.5 1840.25ZM2636.54 1840.25 2664.04 1854 2636.54 1867.75Z"
       id="path107" /></g></svg>
