<svg width="3144" height="739" xmlns="http://www.w3.org/2000/svg" xmlns:xlink="http://www.w3.org/1999/xlink" xml:space="preserve" overflow="hidden"><g transform="translate(-91 -16)"><rect x="614" y="322" width="494" height="136" fill="#808080"/><text fill="#FFFFFF" font-family="Times New Roman,Times New Roman_MSFontService,sans-serif" font-weight="400" font-size="55" transform="matrix(1 0 0 1 650.562 410)">Generative Models</text><rect x="2224" y="322" width="544" height="136" fill="#808080"/><text fill="#FFFFFF" font-family="Times New Roman,Times New Roman_MSFontService,sans-serif" font-weight="400" font-size="55" transform="matrix(1 0 0 1 2331.81 377)">Discriminative </text><text fill="#FFFFFF" font-family="Times New Roman,Times New Roman_MSFontService,sans-serif" font-weight="400" font-size="55" transform="matrix(1 0 0 1 2413.46 443)">Models</text><path d="M0-5.15625 62.2052-5.15625C65.0529-5.15625 67.3615-2.84772 67.3615 0L67.3615 832.972 62.2052 827.816 98.6292 827.816 98.6292 838.129 62.2052 838.129C59.3575 838.129 57.049 835.82 57.049 832.972L57.049 0 62.2052 5.15625 0 5.15625ZM93.4729 817.504 124.41 832.972 93.4729 848.441Z" transform="matrix(1.83697e-16 1 1 -1.83697e-16 1663 198)"/><path d="M1668.03 198 1668.03 260.206C1668.03 263.054 1665.72 265.362 1662.87 265.362L861 265.362 866.156 260.206 866.156 296.629 855.844 296.629 855.844 260.206C855.844 257.358 858.152 255.05 861 255.05L1662.87 255.05 1657.71 260.206 1657.71 198ZM876.469 291.473 861 322.411 845.531 291.473Z"/><rect x="91.0001" y="588" width="493" height="135" fill="#808080"/><text fill="#FFFFFF" font-family="Times New Roman,Times New Roman_MSFontService,sans-serif" font-weight="400" font-size="55" transform="matrix(1 0 0 1 173.179 676)">Auto</text><text fill="#FFFFFF" font-family="Times New Roman,Times New Roman_MSFontService,sans-serif" font-weight="400" font-size="55" transform="matrix(1 0 0 1 296.929 676)">Encoder</text><text fill="#FFFFFF" font-family="Times New Roman,Times New Roman_MSFontService,sans-serif" font-weight="400" font-size="55" transform="matrix(1 0 0 1 480.835 676)">s</text><path d="M866.66 458 866.66 522.968C866.66 525.816 864.351 528.124 861.503 528.124L338 528.124 343.156 522.968 343.156 562.154 332.843 562.154 332.843 522.968C332.843 520.12 335.152 517.812 338 517.812L861.503 517.812 856.347 522.968 856.347 458ZM353.468 556.998 338 587.936 322.531 556.998Z"/><rect x="1130" y="588" width="494" height="135" fill="#808080"/><text fill="#FFFFFF" font-family="Times New Roman,Times New Roman_MSFontService,sans-serif" font-weight="400" font-size="55" transform="matrix(1 0 0 1 1258.1 643)">Echo State </text><text fill="#FFFFFF" font-family="Times New Roman,Times New Roman_MSFontService,sans-serif" font-weight="400" font-size="55" transform="matrix(1 0 0 1 1270.13 709)">Networks</text><path d="M0-5.15625 64.9681-5.15625C67.8158-5.15625 70.1244-2.84772 70.1244 0L70.1244 515.866 64.9681 510.71 104.154 510.71 104.154 521.023 64.9681 521.023C62.1204 521.023 59.8119 518.714 59.8119 515.866L59.8119 0 64.9681 5.15625 0 5.15625ZM98.9982 500.398 129.936 515.866 98.9982 531.335Z" transform="matrix(1.83697e-16 1 1 -1.83697e-16 861 458)"/><rect x="1702" y="588" width="494" height="135" fill="#808080"/><text fill="#FFFFFF" font-family="Times New Roman,Times New Roman_MSFontService,sans-serif" font-weight="400" font-size="55" transform="matrix(1 0 0 1 1866.2 643)">Feature </text><text fill="#FFFFFF" font-family="Times New Roman,Times New Roman_MSFontService,sans-serif" font-weight="400" font-size="55" transform="matrix(1 0 0 1 1814.06 709)">Engineering</text><rect x="2741" y="588" width="494" height="135" fill="#808080"/><text fill="#FFFFFF" font-family="Times New Roman,Times New Roman_MSFontService,sans-serif" font-weight="400" font-size="55" transform="matrix(1 0 0 1 2852.49 676)">End</text><text fill="#FFFFFF" font-family="Times New Roman,Times New Roman_MSFontService,sans-serif" font-weight="400" font-size="55" transform="matrix(1 0 0 1 2941.29 676)">-</text><text fill="#FFFFFF" font-family="Times New Roman,Times New Roman_MSFontService,sans-serif" font-weight="400" font-size="55" transform="matrix(1 0 0 1 2959.63 676)">To</text><text fill="#FFFFFF" font-family="Times New Roman,Times New Roman_MSFontService,sans-serif" font-weight="400" font-size="55" transform="matrix(1 0 0 1 3017.08 676)">-</text><text fill="#FFFFFF" font-family="Times New Roman,Times New Roman_MSFontService,sans-serif" font-weight="400" font-size="55" transform="matrix(1 0 0 1 3035.41 676)">End</text><path d="M2501.13 458 2501.13 522.968C2501.13 525.816 2498.82 528.124 2495.97 528.124L1949 528.124 1954.16 522.968 1954.16 562.154 1943.84 562.154 1943.84 522.968C1943.84 520.12 1946.15 517.812 1949 517.812L2495.97 517.812 2490.81 522.968 2490.81 458ZM1964.47 556.998 1949 587.936 1933.53 556.998Z"/><path d="M0-5.15625 64.9678-5.15625C67.8156-5.15625 70.1241-2.84772 70.1241 0L70.1241 492.4 64.9678 487.244 104.154 487.244 104.154 497.556 64.9678 497.556C62.1201 497.556 59.8116 495.247 59.8116 492.4L59.8116 0 64.9678 5.15625 0 5.15625ZM98.9982 476.931 129.936 492.4 98.9982 507.869Z" transform="matrix(1.83697e-16 1 1 -1.83697e-16 2496 458)"/><rect x="1416" y="16.0002" width="494" height="182" fill="#808080"/><text fill="#FFFFFF" font-family="Times New Roman,Times New Roman_MSFontService,sans-serif" font-weight="400" font-size="55" transform="matrix(1 0 0 1 1459.31 94)">Deep Learning for </text><text fill="#FFFFFF" font-family="Times New Roman,Times New Roman_MSFontService,sans-serif" font-weight="400" font-size="55" transform="matrix(1 0 0 1 1612.57 160)">TSC</text></g></svg>